<svg xmlns="http://www.w3.org/2000/svg" fill="none" viewBox="0 0 35 40">
  <path fill="#4785FE" d="M3.069 37.171c.792 0 1.413-.171 1.854-.531.441-.351.666-.828.666-1.431 0-.945-.603-1.557-1.791-1.836l-1.206-.279c-.621-.126-.927-.405-.927-.837 0-.279.108-.504.333-.666.216-.162.522-.252.918-.252.423 0 .765.099 1.017.297.252.198.405.477.45.837h1.053c-.054-.63-.297-1.125-.738-1.485-.45-.36-1.035-.54-1.773-.54-.747 0-1.323.18-1.719.54a1.787 1.787 0 00-.612 1.377c0 .9.558 1.476 1.683 1.728l1.044.243c.414.09.711.216.891.36.18.153.27.351.27.603a.842.842 0 01-.369.729c-.243.171-.585.252-1.035.252-1.008 0-1.548-.432-1.611-1.314H.405c.036.72.288 1.26.747 1.638.459.378 1.098.567 1.917.567zm6.507-2.286c0 .414-.108.738-.306.963-.207.225-.477.333-.8.333-.54 0-.802-.288-.802-.882v-2.943H6.615v3.168c0 .504.135.891.405 1.17.27.288.657.423 1.143.423.63 0 1.116-.252 1.44-.765l.018.648h1.008v-4.644H9.576v2.529zm4.743-2.637c-.675 0-1.17.261-1.485.774l-.018-.666h-.927v6.48h1.053v-2.331c.315.414.756.621 1.314.621.612 0 1.098-.234 1.467-.702.36-.459.549-1.062.549-1.809 0-.72-.19-1.296-.55-1.728-.377-.423-.845-.639-1.403-.639zm-.243 3.96a1.01 1.01 0 01-.855-.432c-.225-.27-.333-.648-.333-1.134 0-.477.108-.846.333-1.116a1.05 1.05 0 01.855-.396c.36 0 .639.135.846.396.207.27.315.63.315 1.089 0 .486-.108.873-.324 1.161-.216.288-.495.432-.837.432zm5.613-3.96c-.675 0-1.17.261-1.485.774l-.018-.666h-.927v6.48h1.053v-2.331c.315.414.756.621 1.314.621.612 0 1.098-.234 1.467-.702.36-.459.549-1.062.549-1.809 0-.72-.19-1.296-.55-1.728-.377-.423-.845-.639-1.403-.639zm-.243 3.96a1.01 1.01 0 01-.855-.432c-.225-.27-.333-.648-.333-1.134 0-.477.108-.846.333-1.116a1.05 1.05 0 01.855-.396c.36 0 .639.135.846.396.207.27.315.63.315 1.089 0 .486-.108.873-.324 1.161-.216.288-.495.432-.837.432zm6.891.234c.432-.45.648-1.044.648-1.773 0-.711-.216-1.296-.639-1.755-.432-.45-.981-.675-1.656-.675-.684 0-1.242.225-1.674.675-.432.459-.648 1.053-.648 1.773s.216 1.305.648 1.764c.414.459.972.684 1.656.684.675 0 1.233-.225 1.665-.693zm-1.665-.153c-.396 0-.702-.144-.927-.432-.234-.288-.342-.684-.342-1.17 0-.486.108-.882.333-1.17.225-.288.54-.432.936-.432s.711.144.945.423c.225.288.342.675.342 1.161 0 .495-.117.891-.351 1.179-.234.297-.54.441-.936.441zm5.578-4.077c-.612 0-1.044.333-1.287.99l.018-.846h-1.008V37h1.053v-2.394c0-.432.117-.774.342-1.017.225-.243.522-.369.9-.369 0 0 .099.009.279.018v-.999a1.657 1.657 0 00-.297-.027zm3.621.936v-.792l-.954.027v-1.458h-1.053v1.458l-.666-.027v.792l.666-.027v2.709c0 .414.09.72.27.9.18.18.486.27.9.27h.837v-.855h-.513c-.162 0-.279-.027-.342-.099-.072-.063-.099-.18-.099-.351v-2.583l.954.036zM17.135 0C10.995 0 6 4.995 6 11.135v6.038C6 18.401 7 19.4 8.227 19.4h.87a2.23 2.23 0 002.1 1.485c1.227 0 2.227-1 2.227-2.227V12.62c0-1.228-1-2.227-2.228-2.227a2.23 2.23 0 00-2.099 1.485h-.87c-.26 0-.51.045-.742.127v-.87c0-5.321 4.329-9.65 9.65-9.65 5.322 0 9.65 4.329 9.65 9.65v.87a2.217 2.217 0 00-.742-.127h-.87a2.23 2.23 0 00-2.099-1.485 2.23 2.23 0 00-2.227 2.227v6.038a2.23 2.23 0 002.873 2.13 2.23 2.23 0 01-2.13 1.581h-2.355a2.23 2.23 0 00-2.1-1.484 2.23 2.23 0 00-2.227 2.227c0 1.228 1 2.227 2.227 2.227a2.23 2.23 0 002.1-1.485h2.354a3.716 3.716 0 003.712-3.712V19.4h.742c1.228 0 2.227-.999 2.227-2.227v-6.038C28.27 4.995 23.275 0 17.136 0zm-6.68 12.62a.743.743 0 011.484 0v6.038a.743.743 0 01-1.485 0V12.62zm-2.228.742h.742v4.553h-.742a.743.743 0 01-.742-.742v-3.068c0-.41.333-.743.742-.743zm8.908 10.492a.743.743 0 11.002-1.486.743.743 0 01-.002 1.486zm6.681-5.196a.743.743 0 01-1.484 0V12.62a.743.743 0 011.484 0v6.038zm2.97-1.485c0 .41-.333.742-.743.742h-.742v-4.553h.742c.41 0 .743.333.743.743v3.068z"/>
</svg>
