<svg xmlns="http://www.w3.org/2000/svg" fill="none" viewBox="0 0 28 40">
  <path fill="#4785FE" d="M10.13 0a.64.64 0 00-.652.652V26.74c0 .37.283.652.652.652a.64.64 0 00.653-.652V1.304h13.913V26.74c0 .37.282.652.652.652A.64.64 0 0026 26.74V.652A.64.64 0 0025.348 0H10.13zm3.913 3.913a.64.64 0 00-.652.652v.87c0 .37.283.652.652.652a.64.64 0 00.653-.652v-.87a.64.64 0 00-.652-.652zm3.696 0a.64.64 0 00-.652.652v.87c0 .37.283.652.652.652a.64.64 0 00.652-.652v-.87a.64.64 0 00-.652-.652zm3.696 0a.64.64 0 00-.652.652v.87c0 .37.282.652.652.652a.64.64 0 00.652-.652v-.87a.64.64 0 00-.652-.652zM7.326 6.957a.672.672 0 00-.26.043L1.412 9.174A.666.666 0 001 9.783v16.956c0 .37.283.652.652.652a.64.64 0 00.652-.652v-16.5l5.24-2.021c.325-.13.5-.5.37-.848a.658.658 0 00-.588-.413zm6.718 1.304a.64.64 0 00-.653.652v.87c0 .37.283.652.652.652a.64.64 0 00.653-.652v-.87a.64.64 0 00-.652-.652zm3.695 0a.64.64 0 00-.652.652v.87c0 .37.283.652.652.652a.64.64 0 00.652-.652v-.87a.64.64 0 00-.652-.652zm3.696 0a.64.64 0 00-.652.652v.87c0 .37.282.652.652.652a.64.64 0 00.652-.652v-.87a.64.64 0 00-.652-.652zM6 12.609a.64.64 0 00-.652.652v.87c0 .369.282.652.652.652a.64.64 0 00.652-.653v-.87A.64.64 0 006 12.61zm8.043 0a.64.64 0 00-.652.652v.87c0 .369.283.652.652.652a.64.64 0 00.653-.653v-.87a.64.64 0 00-.652-.651zm3.696 0a.64.64 0 00-.652.652v.87c0 .369.283.652.652.652a.64.64 0 00.652-.653v-.87a.64.64 0 00-.652-.651zm3.696 0a.64.64 0 00-.652.652v.87c0 .369.282.652.652.652a.64.64 0 00.652-.653v-.87a.64.64 0 00-.652-.651zM6 16.956a.64.64 0 00-.652.653v.87c0 .369.282.651.652.651a.64.64 0 00.652-.652v-.87A.64.64 0 006 16.957zm8.043 0a.64.64 0 00-.652.653v.87c0 .369.283.651.652.651a.64.64 0 00.653-.652v-.87a.64.64 0 00-.652-.652zm3.696 0a.64.64 0 00-.652.653v.87c0 .369.283.651.652.651a.64.64 0 00.652-.652v-.87a.64.64 0 00-.652-.652zm3.696 0a.64.64 0 00-.652.653v.87c0 .369.282.651.652.651a.64.64 0 00.652-.652v-.87a.64.64 0 00-.652-.652zM5.348 22.174a.64.64 0 00-.652.652v3.913c0 .37.282.652.652.652h1.304a.64.64 0 00.652-.652v-3.913a.64.64 0 00-.652-.652H5.348zm11.739 0a.64.64 0 00-.652.652v3.913c0 .37.282.652.652.652h1.304a.64.64 0 00.653-.652v-3.913a.64.64 0 00-.653-.652h-1.304zM.675 30.592h2.592c.672 0 1.197.171 1.575.513.378.336.567.816.567 1.44 0 .642-.195 1.137-.585 1.485-.384.348-.927.522-1.629.522H1.764V37H.675v-6.408zm1.089 3.033h1.377c.384 0 .681-.093.891-.279.21-.186.315-.45.315-.792 0-.336-.102-.591-.306-.765-.204-.18-.486-.27-.846-.27H1.764v2.106zm6.812-1.413c.102 0 .2.009.297.027v.999l-.279-.018c-.372 0-.672.123-.9.369-.222.24-.336.579-.342 1.017V37H6.299v-4.644h1.008l-.018.846c.246-.66.675-.99 1.287-.99zm4.788 4.23c-.432.462-.987.693-1.665.693-.684 0-1.236-.228-1.656-.684-.432-.462-.648-1.05-.648-1.764 0-.726.216-1.317.648-1.773.432-.45.99-.675 1.674-.675.678 0 1.23.225 1.656.675.426.456.64 1.041.64 1.755 0 .726-.217 1.317-.649 1.773zm-1.665-.153c.396 0 .708-.147.936-.441.234-.294.351-.687.351-1.179s-.114-.879-.342-1.161c-.228-.282-.543-.423-.945-.423-.396 0-.708.144-.936.432-.222.288-.333.678-.333 1.17 0 .486.114.876.342 1.17.228.288.537.432.927.432zm3.616-3.906v-.351c0-.96.48-1.44 1.44-1.44h.576v.855h-.405c-.204 0-.348.045-.432.135-.084.084-.126.225-.126.423v.378l.963-.027v.792l-.963-.036V37h-1.053v-3.879l-.702.027v-.792l.702.027zm2.808-.765v-1.026h1.053v1.026h-1.053zM19.176 37h-1.053v-4.644h1.053V37zm2.3 0h-1.053v-6.408h1.053V37zm5.498-2.295v.261h-3.43c.024.426.145.756.36.99.223.228.52.342.892.342.534 0 .893-.252 1.08-.756l1.008.09c-.145.486-.4.858-.765 1.116-.36.258-.802.387-1.323.387-.72 0-1.287-.231-1.701-.693-.415-.456-.621-1.05-.621-1.782 0-.708.2-1.29.602-1.746.409-.45.954-.675 1.639-.675.677 0 1.224.219 1.637.657.415.444.622 1.047.622 1.809zm-1.422-1.35c-.204-.204-.474-.306-.81-.306-.343 0-.616.102-.82.306-.216.21-.338.504-.369.882h2.367c-.048-.39-.17-.684-.369-.882z"/>
</svg>
