<svg xmlns="http://www.w3.org/2000/svg" fill="none" viewBox="0 0 35 40">
  <path stroke="#A0A0A0" stroke-linecap="round" stroke-linejoin="round" stroke-width="2" d="M22.833 21.875v-2.083a4.167 4.167 0 00-4.166-4.167h-8.334a4.167 4.167 0 00-4.166 4.167v2.083M14.5 11.458a4.167 4.167 0 100-8.333 4.167 4.167 0 000 8.333z"/>
  <path fill="#A0A0A0" d="M.675 30.592V37h1.089v-2.448h1.431c.702 0 1.242-.171 1.629-.522.387-.342.585-.837.585-1.485 0-.621-.189-1.098-.567-1.44-.378-.342-.909-.513-1.575-.513H.675zm1.089 3.033v-2.106h1.431c.36 0 .639.09.846.27.198.18.306.432.306.765 0 .342-.108.612-.315.792-.216.189-.513.279-.891.279H1.764zm6.812-1.413c-.612 0-1.044.333-1.287.99l.018-.846H6.299V37h1.053v-2.394c0-.432.117-.774.342-1.017.225-.243.522-.369.9-.369 0 0 .099.009.279.018v-.999a1.657 1.657 0 00-.297-.027zm4.788 4.23c.432-.45.648-1.044.648-1.773 0-.711-.216-1.296-.639-1.755-.432-.45-.98-.675-1.656-.675-.684 0-1.242.225-1.674.675-.432.459-.648 1.053-.648 1.773s.216 1.305.648 1.764c.414.459.972.684 1.656.684.675 0 1.233-.225 1.665-.693zm-1.665-.153c-.396 0-.702-.144-.927-.432-.234-.288-.342-.684-.342-1.17 0-.486.108-.882.333-1.17.225-.288.54-.432.936-.432s.711.144.945.423c.225.288.342.675.342 1.161 0 .495-.117.891-.35 1.179-.235.297-.54.441-.937.441zm3.616-3.906l-.702-.027v.792l.702-.027V37h1.053v-3.888l.963.036v-.792l-.963.027v-.378c0-.198.036-.333.126-.423.081-.09.225-.135.432-.135h.405v-.855h-.576c-.963 0-1.44.486-1.44 1.44v.351zm2.808-.765h1.053v-1.026h-1.053v1.026zM19.176 37v-4.644h-1.053V37h1.053zm2.3 0v-6.408h-1.053V37h1.053zm5.498-2.295c0-.756-.207-1.359-.622-1.809-.413-.432-.962-.657-1.637-.657-.684 0-1.233.225-1.639.675-.404.459-.602 1.044-.602 1.746 0 .738.206 1.332.62 1.782.415.468.982.693 1.701.693.522 0 .963-.126 1.323-.387.36-.252.622-.63.766-1.116l-1.009-.09c-.189.504-.549.756-1.08.756-.378 0-.675-.108-.89-.342-.216-.234-.343-.558-.36-.99h3.428v-.261zm-1.422-1.35c.198.198.314.495.369.882h-2.367c.027-.378.152-.666.369-.882.198-.198.477-.306.819-.306.332 0 .602.108.81.306z"/>
</svg>
