<?xml version="1.0"?><svg fill="#FF2727" xmlns="http://www.w3.org/2000/svg"  viewBox="0 0 64 64" >    <path d="M 13 6 C 9.14 6 6 9.14 6 13 L 6 51 C 6 54.86 9.14 58 13 58 L 51 58 C 54.86 58 58 54.86 58 51 L 58 13 C 58 9.14 54.86 6 51 6 L 13 6 z M 13 8 L 51 8 C 53.757 8 56 10.243 56 13 L 56 30 C 55.448 30 55 30.448 55 31 L 55 33 C 55 33.552 55.448 34 56 34 L 56 51 C 56 53.757 53.757 56 51 56 L 13 56 C 10.243 56 8 53.757 8 51 L 8 34 C 8.552 34 9 33.552 9 33 L 9 31 C 9 30.448 8.552 30 8 30 L 8 13 C 8 10.243 10.243 8 13 8 z M 42.556641 16.615234 C 42.044266 16.615359 41.532078 16.811172 41.142578 17.201172 L 32 26.34375 L 22.857422 17.201172 C 22.079422 16.422172 20.810297 16.421172 20.029297 17.201172 L 17.201172 20.029297 C 16.421172 20.809297 16.421172 22.077422 17.201172 22.857422 L 26.34375 32 L 17.201172 41.142578 C 16.421172 41.922578 16.421172 43.190703 17.201172 43.970703 L 20.029297 46.798828 C 20.808297 47.578828 22.077422 47.577828 22.857422 46.798828 L 32 37.65625 L 41.142578 46.798828 C 41.532578 47.188828 42.043641 47.384766 42.556641 47.384766 C 43.068641 47.384766 43.580703 47.188828 43.970703 46.798828 L 46.798828 43.970703 C 47.578828 43.190703 47.578828 41.922578 46.798828 41.142578 L 37.65625 32 L 46.798828 22.857422 C 47.578828 22.077422 47.578828 20.809297 46.798828 20.029297 L 43.970703 17.201172 C 43.580703 16.810672 43.069016 16.615109 42.556641 16.615234 z M 21.443359 18.615234 L 31.292969 28.464844 C 31.683969 28.855844 32.316031 28.855844 32.707031 28.464844 L 42.556641 18.615234 L 45.384766 21.443359 L 35.535156 31.292969 C 35.144156 31.683969 35.144156 32.316031 35.535156 32.707031 L 45.384766 42.556641 L 42.556641 45.384766 L 32.707031 35.535156 C 32.512031 35.340156 32.256 35.242187 32 35.242188 C 31.744 35.242188 31.487969 35.340156 31.292969 35.535156 L 21.443359 45.384766 L 18.615234 42.556641 L 28.464844 32.707031 C 28.855844 32.316031 28.855844 31.683969 28.464844 31.292969 L 18.615234 21.443359 L 21.443359 18.615234 z M 13 30 C 12.448 30 12 30.448 12 31 L 12 33 C 12 33.552 12.448 34 13 34 C 13.552 34 14 33.552 14 33 L 14 31 C 14 30.448 13.552 30 13 30 z M 18 30 C 17.448 30 17 30.448 17 31 L 17 33 C 17 33.552 17.448 34 18 34 C 18.552 34 19 33.552 19 33 L 19 31 C 19 30.448 18.552 30 18 30 z M 46 30 C 45.448 30 45 30.448 45 31 L 45 33 C 45 33.552 45.448 34 46 34 C 46.552 34 47 33.552 47 33 L 47 31 C 47 30.448 46.552 30 46 30 z M 51 30 C 50.448 30 50 30.448 50 31 L 50 33 C 50 33.552 50.448 34 51 34 C 51.552 34 52 33.552 52 33 L 52 31 C 52 30.448 51.552 30 51 30 z"/></svg>
