<svg xmlns="http://www.w3.org/2000/svg" width="26" height="26" fill="none" viewBox="0 0 26 26">
  <path stroke="#4785FE" stroke-linecap="round" stroke-linejoin="round" stroke-width="2" d="M23.834 18.33v3.25a2.165 2.165 0 01-2.362 2.167 21.44 21.44 0 01-9.35-3.326 21.123 21.123 0 01-6.5-6.5 21.44 21.44 0 01-3.325-9.393 2.167 2.167 0 012.156-2.361h3.25A2.167 2.167 0 019.869 4.03c.138 1.04.392 2.061.759 3.044a2.166 2.166 0 01-.488 2.286l-1.376 1.376a17.333 17.333 0 006.5 6.5l1.376-1.376a2.166 2.166 0 012.286-.487c.983.366 2.004.62 3.044.758a2.167 2.167 0 011.864 2.199z"/>
</svg>
