<svg xmlns="http://www.w3.org/2000/svg" fill="none" viewBox="0 0 35 40">
  <path fill="#A0A0A0" d="M17.135 0a8.71 8.71 0 00-5.655 2.052c-.546.437-.786 1.18-.698 1.878-1.922 2.009-3.035 5.109-3.035 8.952 0 .37.284.655.655.655a.643.643 0 00.655-.655c0-3.232.851-5.873 2.38-7.685.24.218.523.349.829.392.066 0 .131.022.218.022.35 0 .699-.13.983-.35 1.048-.894 2.292-1.331 3.668-1.331 1.332 0 2.554.415 3.602 1.267.35.283.765.393 1.18.327.305-.044.589-.197.829-.393 1.572 1.768 2.467 4.454 2.467 7.75 0 .372.284.656.655.656a.643.643 0 00.655-.655c0-3.909-1.135-7.03-3.122-9.061.066-.699-.174-1.441-.72-1.878C21.065.677 19.144 0 17.135 0zm-.022 1.31c1.747 0 3.34.568 4.716 1.66.306.218.35.742.131 1.07-.065.108-.153.174-.24.174-.066 0-.11 0-.175-.066a7.029 7.029 0 00-4.41-1.528c-1.66 0-3.231.568-4.52 1.616-.065.043-.109.065-.174.065a.365.365 0 01-.24-.174c-.219-.306-.175-.852.087-1.07 1.42-1.157 3.035-1.747 4.825-1.747zm-6.31 12.008c-.982 0-1.877.502-2.554 1.332C7.026 14.76 6 16.31 6 18.122s1.026 3.362 2.249 3.471c.655.808 1.572 1.332 2.554 1.332 2.053 0 3.712-2.162 3.712-4.803 0-2.642-1.66-4.804-3.712-4.804zm12.664 0c-2.053 0-3.712 2.162-3.712 4.804 0 2.642 1.66 4.803 3.712 4.803.982 0 1.877-.502 2.554-1.332 1.244-.109 2.249-1.66 2.249-3.471 0-1.813-1.026-3.363-2.249-3.472-.655-.808-1.572-1.332-2.554-1.332zm0 1.31c.436 0 .851.175 1.2.48-.72.612-1.2 1.747-1.2 3.014 0 1.266.48 2.38 1.2 3.013-.349.305-.764.48-1.2.48-1.31 0-2.402-1.594-2.402-3.493 0-1.9 1.092-3.494 2.402-3.494zm-12.664 1.31c.393 0 1.092.83 1.092 2.184 0 1.353-.699 2.183-1.092 2.183-.393 0-1.091-.83-1.091-2.183 0-1.354.698-2.184 1.091-2.184zm14.192 6.987a.643.643 0 00-.655.655c0 .48-.393.873-.873.873h-5.35a1.964 1.964 0 00-1.855-1.31h-.874a1.957 1.957 0 00-1.965 1.965c0 1.092.874 1.965 1.965 1.965h.874c.851 0 1.572-.546 1.855-1.31h5.35a2.19 2.19 0 002.183-2.183.643.643 0 00-.655-.655zm-9.607 1.528h.874c.37 0 .655.284.655.655a.643.643 0 01-.655.655h-.874a.643.643 0 01-.655-.655c0-.37.284-.655.655-.655zM3.069 37.171c-.816 0-1.455-.189-1.917-.567-.456-.378-.705-.924-.747-1.638h1.062c.066.876.603 1.314 1.611 1.314.45 0 .795-.084 1.035-.252a.842.842 0 00.369-.729.745.745 0 00-.27-.603c-.18-.15-.477-.27-.891-.36l-1.044-.243c-1.122-.258-1.683-.834-1.683-1.728 0-.546.204-1.005.612-1.377.402-.36.975-.54 1.719-.54.738 0 1.329.18 1.773.54.444.36.69.855.738 1.485H4.383c-.042-.36-.192-.639-.45-.837-.252-.198-.591-.297-1.017-.297-.39 0-.696.084-.918.252a.78.78 0 00-.333.666c0 .426.309.705.927.837l1.206.279c1.194.276 1.791.888 1.791 1.836 0 .6-.222 1.077-.666 1.431-.438.354-1.056.531-1.854.531zm6.507-2.286v-2.529h1.053V37H9.621l-.018-.648c-.324.51-.804.765-1.44.765-.486 0-.867-.141-1.143-.423-.27-.282-.405-.672-.405-1.17v-3.168h1.053v2.943c0 .588.267.882.801.882.33 0 .597-.111.801-.333.204-.228.306-.549.306-.963zm4.743-2.637c.564 0 1.032.213 1.404.639.366.426.549 1.002.549 1.728 0 .744-.183 1.347-.55 1.809-.365.468-.854.702-1.466.702-.558 0-.996-.207-1.314-.621v2.331h-1.053v-6.48h.927l.018.666c.318-.516.813-.774 1.485-.774zm-.243 3.96a.986.986 0 00.837-.432c.216-.294.324-.681.324-1.161 0-.462-.105-.825-.315-1.089-.204-.264-.486-.396-.846-.396a1.05 1.05 0 00-.855.396c-.222.264-.333.636-.333 1.116 0 .48.11.858.333 1.134.216.288.5.432.855.432zm5.613-3.96c.564 0 1.032.213 1.404.639.366.426.549 1.002.549 1.728 0 .744-.183 1.347-.55 1.809-.365.468-.854.702-1.466.702-.558 0-.996-.207-1.314-.621v2.331h-1.053v-6.48h.927l.018.666c.318-.516.813-.774 1.485-.774zm-.243 3.96a.986.986 0 00.837-.432c.216-.294.324-.681.324-1.161 0-.462-.105-.825-.315-1.089-.204-.264-.486-.396-.846-.396a1.05 1.05 0 00-.855.396c-.222.264-.333.636-.333 1.116 0 .48.11.858.333 1.134.216.288.5.432.855.432zm6.891.234c-.432.462-.987.693-1.665.693-.684 0-1.236-.228-1.656-.684-.432-.462-.648-1.05-.648-1.764 0-.726.216-1.317.648-1.773.432-.45.99-.675 1.674-.675.678 0 1.23.225 1.656.675.426.456.639 1.041.639 1.755 0 .726-.216 1.317-.648 1.773zm-1.665-.153c.396 0 .708-.147.936-.441.234-.294.351-.687.351-1.179s-.114-.879-.342-1.161c-.228-.282-.543-.423-.945-.423-.396 0-.708.144-.936.432-.222.288-.333.678-.333 1.17 0 .486.114.876.342 1.17.228.288.537.432.927.432zm5.578-4.077c.102 0 .2.009.297.027v.999l-.28-.018c-.371 0-.671.123-.9.369-.221.24-.335.579-.341 1.017V37h-1.053v-4.644h1.008l-.018.846c.246-.66.675-.99 1.287-.99zm3.621.936l-.954-.036v2.583c0 .168.033.285.1.351.065.066.18.099.341.099h.513V37h-.837c-.414 0-.714-.09-.9-.27-.18-.186-.27-.486-.27-.9v-2.709l-.666.027v-.792l.666.027v-1.458h1.053v1.458l.954-.027v.792z"/>
</svg>
