<svg xmlns="http://www.w3.org/2000/svg" fill="none" viewBox="0 0 29 40">
  <path fill="#4785FE" d="M5.1 0C3.945 0 3 .945 3 2.1c0 1.155.945 2.1 2.1 2.1h1.47v17.22c0 .357.273.63.63.63s.63-.273.63-.63V2.1h13.44v19.908l-1.03-1.029a.609.609 0 00-.88 0l-1.66 1.66-1.66-1.66a.609.609 0 00-.88 0l-1.66 1.66-1.66-1.66a.609.609 0 00-.88 0l-2.1 2.1a.609.609 0 000 .882c.251.252.65.252.88 0l1.66-1.66 1.66 1.66c.251.252.65.252.88 0l1.66-1.66 1.66 1.66c.251.252.65.252.88 0l1.66-1.66 1.66 1.66c.125.126.272.189.44.189.084 0 .168-.02.23-.042a.667.667 0 00.4-.588V4.2H24c1.155 0 2.1-.945 2.1-2.1C26.1.945 25.155 0 24 0H5.1zm5.25 5.46a.619.619 0 00-.63.63c0 .357.273.63.63.63h8.4c.357 0 .63-.273.63-.63a.619.619 0 00-.63-.63h-8.4zm0 3.15a.619.619 0 00-.63.63c0 .357.273.63.63.63h8.4c.357 0 .63-.273.63-.63a.619.619 0 00-.63-.63h-8.4zm0 3.15a.619.619 0 00-.63.63c0 .357.273.63.63.63h8.4c.357 0 .63-.273.63-.63a.619.619 0 00-.63-.63h-8.4zm8.4 3.134a.517.517 0 00-.126.016.298.298 0 00-.126.042c-.042.02-.063.042-.105.063a.164.164 0 00-.084.084.572.572 0 00-.189.441c0 .042 0 .084.02.126 0 .042.022.084.043.126.021.042.042.084.063.105.02.042.042.063.084.105.126.126.273.189.44.189a.572.572 0 00.442-.19c.02-.02.063-.062.084-.104.02-.042.042-.063.063-.105.021-.042.02-.084.042-.126 0-.042.02-.084.02-.126a.571.571 0 00-.188-.44c-.063-.043-.105-.064-.126-.085-.042-.021-.063-.042-.105-.063-.042-.021-.084-.021-.126-.042a.517.517 0 00-.126-.016zm-8.4.016a.619.619 0 00-.63.63c0 .357.273.63.63.63h6.3c.357 0 .63-.273.63-.63a.619.619 0 00-.63-.63h-6.3zM3.465 37.18c-.882 0-1.605-.315-2.169-.945-.57-.624-.855-1.44-.855-2.448 0-.99.285-1.794.855-2.412.57-.612 1.293-.918 2.169-.918.888 0 1.62.306 2.196.918.57.624.855 1.428.855 2.412 0 1.008-.285 1.824-.855 2.448-.576.63-1.308.945-2.196.945zM2.07 35.56c.354.444.822.666 1.404.666s1.053-.222 1.413-.666c.354-.444.531-1.035.531-1.773 0-.708-.177-1.284-.531-1.728-.36-.432-.831-.648-1.413-.648-.588 0-1.056.216-1.404.648-.354.444-.531 1.02-.531 1.728 0 .738.177 1.329.531 1.773zm7.798-3.348c.102 0 .2.009.297.027v.999l-.28-.018c-.371 0-.671.123-.9.369-.221.24-.335.579-.341 1.017V37H7.59v-4.644h1.008l-.018.846c.246-.66.675-.99 1.287-.99zm4.15.657v-2.277h1.052V37h-.927l-.018-.657c-.324.522-.798.783-1.422.783-.6 0-1.086-.231-1.458-.693-.372-.462-.558-1.062-.558-1.8 0-.72.183-1.299.55-1.737.371-.432.84-.648 1.403-.648.6 0 1.06.207 1.377.621zm-1.135 3.339c.348 0 .633-.144.855-.432.222-.288.333-.666.333-1.134 0-.474-.108-.846-.324-1.116a1.093 1.093 0 00-.864-.396c-.354 0-.636.132-.846.396-.21.264-.315.633-.315 1.107 0 .48.105.864.315 1.152.21.282.492.423.846.423zm7.683-1.503v.261h-3.429c.024.426.144.756.36.99.222.228.52.342.891.342.534 0 .894-.252 1.08-.756l1.008.09c-.144.486-.399.858-.765 1.116-.36.258-.8.387-1.323.387-.72 0-1.287-.231-1.7-.693-.415-.456-.622-1.05-.622-1.782 0-.708.201-1.29.603-1.746.408-.45.954-.675 1.638-.675.678 0 1.224.219 1.638.657.414.444.621 1.047.621 1.809zm-1.422-1.35c-.204-.204-.474-.306-.81-.306-.342 0-.615.102-.819.306-.216.21-.339.504-.369.882h2.367c-.048-.39-.17-.684-.369-.882zm4.69-1.143c.102 0 .2.009.297.027v.999l-.28-.018c-.371 0-.671.123-.9.369-.221.24-.335.579-.341 1.017V37h-1.053v-4.644h1.008l-.018.846c.246-.66.675-.99 1.287-.99zm2.844 4.932c-.612 0-1.089-.132-1.43-.396-.343-.27-.54-.66-.595-1.17l.981-.027c.072.546.432.819 1.08.819.306 0 .543-.054.711-.162a.511.511 0 00.261-.459c0-.288-.222-.477-.666-.567l-.927-.189c-.882-.186-1.323-.624-1.323-1.314 0-.438.162-.786.486-1.044.324-.264.765-.396 1.323-.396.558 0 1.008.129 1.35.387.342.258.543.621.603 1.089l-.98.027c-.079-.486-.409-.729-.99-.729-.259 0-.46.048-.604.144a.468.468 0 00-.216.414c0 .27.207.45.621.54l.954.198c.468.102.81.261 1.026.477.222.216.333.498.333.846 0 .474-.18.846-.54 1.116-.354.264-.84.396-1.458.396z"/>
</svg>
