<svg xmlns="http://www.w3.org/2000/svg" fill="none" viewBox="0 0 35 40">
  <path fill="#4785FE" d="M3.465 38.18c.882 0 1.62-.315 2.196-.945.567-.621.855-1.44.855-2.448 0-.981-.288-1.782-.855-2.412-.576-.612-1.314-.918-2.196-.918-.882 0-1.602.306-2.169.918-.576.621-.855 1.422-.855 2.412 0 1.008.279 1.827.855 2.448.558.63 1.287.945 2.169.945zm.009-.954c-.585 0-1.053-.216-1.404-.666-.36-.441-.531-1.035-.531-1.773 0-.702.171-1.278.531-1.728.342-.432.81-.648 1.404-.648.576 0 1.053.216 1.413.648.351.45.531 1.026.531 1.728 0 .738-.18 1.332-.531 1.773-.36.45-.837.666-1.413.666zm6.394-4.014c-.612 0-1.044.333-1.287.99l.018-.846H7.59V38h1.053v-2.394c0-.432.117-.774.342-1.017.225-.243.522-.369.9-.369 0 0 .099.009.279.018v-.999a1.657 1.657 0 00-.297-.027zm4.15.657c-.325-.414-.784-.621-1.378-.621-.567 0-1.035.216-1.404.648-.369.441-.549 1.017-.549 1.737 0 .738.18 1.341.558 1.8.37.468.855.693 1.458.693.621 0 1.098-.261 1.422-.783l.018.657h.927v-6.408h-1.053v2.277zm-1.135 3.339c-.36 0-.639-.135-.846-.423-.216-.288-.315-.666-.315-1.152 0-.468.1-.837.315-1.107.207-.261.486-.396.846-.396.342 0 .63.135.864.396.216.27.324.648.324 1.116 0 .468-.117.846-.333 1.134-.225.288-.513.432-.855.432zm7.683-1.503c0-.756-.207-1.359-.62-1.809-.415-.432-.964-.657-1.639-.657-.684 0-1.233.225-1.638.675-.405.459-.603 1.044-.603 1.746 0 .738.207 1.332.621 1.782.414.468.981.693 1.701.693.522 0 .963-.126 1.323-.387.36-.252.621-.63.765-1.116l-1.008-.09c-.189.504-.549.756-1.08.756-.378 0-.675-.108-.89-.342-.217-.234-.343-.558-.36-.99h3.428v-.261zm-1.422-1.35c.198.198.315.495.37.882h-2.368c.027-.378.153-.666.37-.882.197-.198.476-.306.818-.306.333 0 .603.108.81.306zm4.69-1.143c-.612 0-1.044.333-1.287.99l.018-.846h-1.008V38h1.053v-2.394c0-.432.117-.774.342-1.017.225-.243.522-.369.9-.369 0 0 .099.009.279.018v-.999a1.657 1.657 0 00-.297-.027zm2.844 4.932c.612 0 1.098-.126 1.458-.396.36-.27.54-.639.54-1.116 0-.342-.117-.63-.333-.846-.216-.216-.558-.369-1.026-.477l-.954-.198c-.414-.09-.62-.27-.62-.54 0-.18.071-.315.215-.414.144-.09.342-.144.603-.144.576 0 .91.243.99.729l.981-.027c-.063-.468-.26-.828-.603-1.089-.342-.252-.792-.387-1.35-.387s-.999.135-1.323.396c-.324.261-.486.612-.486 1.044 0 .693.441 1.134 1.323 1.314l.927.189c.441.09.666.279.666.567 0 .198-.09.351-.26.459-.172.108-.406.162-.712.162-.648 0-1.008-.27-1.08-.819l-.98.027c.053.513.251.9.593 1.17.342.27.82.396 1.431.396z"/>
  <path stroke="#4785FE" stroke-linecap="round" stroke-linejoin="round" d="M6.85 1L3 6.133V24.1a2.567 2.567 0 002.567 2.567h17.966A2.567 2.567 0 0026.1 24.1V6.133L22.25 1H6.85zM3 6.133h23.1M19.683 11.267a5.133 5.133 0 11-10.266 0"/>
</svg>
