<?xml version="1.0" encoding="UTF-8"?>
<svg width="284px" height="81px" viewBox="0 0 284 81" version="1.1" xmlns="http://www.w3.org/2000/svg" xmlns:xlink="http://www.w3.org/1999/xlink">
    <!-- Generator: Sketch 52.6 (67491) - http://www.bohemiancoding.com/sketch -->
    <title>FYTR</title>
    <desc>Created with Sketch.</desc>
    <g id="FYTR" stroke="none" stroke-width="1" fill="none" fill-rule="evenodd">
        <polyline id="Fill-1" fill="#000000" points="0.74609375 0.81746875 0.74609375 80.0674687 7.17709375 80.0674687 7.17709375 43.6574687 52.8270938 43.6574687 52.8270938 37.2274688 7.17709375 37.2274688 7.17709375 7.24546875 56.0870938 7.24746875 56.0870938 0.81746875 0.74609375 0.81746875"></polyline>
        <polyline id="Fill-2" fill="#000000" points="100.154094 39.6884687 70.8920938 0.81746875 62.8520938 0.81746875 96.9400938 46.0084688 96.9400938 80.0674687 103.368094 80.0674687 103.368094 46.0084688 137.455094 0.81746875 129.415094 0.81746875 100.154094 39.6884687"></polyline>
        <polyline id="Fill-3" fill="#000000" points="144.391094 0.81746875 144.391094 7.24746875 174.821094 7.24746875 174.821094 80.0674687 181.251094 80.0674687 181.251094 7.24746875 211.685094 7.24746875 211.685094 0.81746875 144.391094 0.81746875"></polyline>
        <path d="M277.150094,26.6414687 C277.149094,37.3644688 268.497094,45.9194687 257.761094,45.9234687 L229.236094,45.9234687 L229.236094,7.24746875 L257.761094,7.24746875 C268.488094,7.24746875 277.150094,15.9094687 277.150094,26.6414687 Z M283.579094,26.6414687 C283.579094,12.3704687 272.027094,0.81746875 257.761094,0.81746875 L222.806094,0.81746875 L222.806094,80.0674687 L229.236094,80.0674687 L229.236094,52.3504688 L256.882094,52.3504688 L275.681094,80.0674687 L283.419094,80.0674687 L264.056094,51.5734688 C275.288094,48.8404688 283.579094,38.7684688 283.579094,26.6414687 Z" id="Fill-4" fill="#000000"></path>
    </g>
</svg>