<svg xmlns="http://www.w3.org/2000/svg" fill="none" viewBox="0 0 40 40">
  <path fill="#A0A0A0" d="M13.235 0A3.244 3.244 0 0010 3.235a3.244 3.244 0 003.235 3.235 3.245 3.245 0 003.235-3.235A3.245 3.245 0 0013.235 0zm0 1.213c1.112 0 2.022.91 2.022 2.022 0 1.112-.91 2.022-2.022 2.022a2.028 2.028 0 01-2.022-2.022c0-1.112.91-2.022 2.022-2.022zm5.46.202a.596.596 0 00-.608.607c0 .344.263.606.607.606h10.11a.596.596 0 00.606-.606.596.596 0 00-.607-.607H18.694zm0 2.427a.596.596 0 00-.608.606c0 .344.263.607.607.607h4.044a.596.596 0 00.606-.607.596.596 0 00-.606-.606h-4.044zm-5.46 4.852A3.244 3.244 0 0010 11.93a3.245 3.245 0 003.235 3.235 3.245 3.245 0 003.235-3.235 3.245 3.245 0 00-3.235-3.235zm5.46 1.415a.596.596 0 00-.608.607c0 .344.263.607.607.607h10.11a.596.596 0 00.606-.607.596.596 0 00-.607-.607H18.694zm0 2.427a.596.596 0 00-.608.606c0 .344.263.607.607.607h4.044a.596.596 0 00.606-.607.596.596 0 00-.606-.606h-4.044zm-5.46 4.852A3.245 3.245 0 0010 20.623a3.244 3.244 0 003.235 3.235 3.245 3.245 0 003.235-3.235 3.245 3.245 0 00-3.235-3.235zm5.46 1.415a.596.596 0 00-.608.607c0 .344.263.607.607.607h10.11a.596.596 0 00.606-.607.596.596 0 00-.607-.607H18.694zm0 2.427a.596.596 0 00-.608.606c0 .344.263.607.607.607h4.044a.596.596 0 00.606-.607.596.596 0 00-.606-.606h-4.044zM1.764 37H.675v-6.408h1.089V37zm3.775-4.761c.486 0 .864.141 1.134.423.276.282.414.672.414 1.17V37H6.034v-2.943c0-.588-.267-.882-.8-.882-.33 0-.598.114-.802.342-.204.222-.306.54-.306.954V37H3.073v-4.644h1.008l.018.648c.324-.51.804-.765 1.44-.765zm4.977 2.142l.648-2.025h1.062L10.615 37H9.553l-1.656-4.644h1.116l.657 2.025.432 1.683.414-1.683zm6.631.324v.261h-3.429c.024.426.144.756.36.99.222.228.52.342.891.342.534 0 .894-.252 1.08-.756l1.008.09c-.144.486-.399.858-.765 1.116-.36.258-.8.387-1.323.387-.72 0-1.287-.231-1.7-.693-.415-.456-.622-1.05-.622-1.782 0-.708.201-1.29.603-1.746.408-.45.954-.675 1.638-.675.678 0 1.224.219 1.638.657.414.444.621 1.047.621 1.809zm-1.422-1.35c-.204-.204-.474-.306-.81-.306-.342 0-.615.102-.819.306-.216.21-.339.504-.369.882h2.367c-.048-.39-.17-.684-.369-.882zm4.879-1.116c.486 0 .864.141 1.134.423.276.282.414.672.414 1.17V37h-1.053v-2.943c0-.588-.267-.882-.801-.882-.33 0-.597.114-.801.342-.204.222-.306.54-.306.954V37h-1.053v-4.644h1.008l.018.648c.324-.51.804-.765 1.44-.765zm5.093.909l-.954-.036v2.583c0 .168.033.285.1.351.065.066.18.099.341.099h.513V37h-.837c-.414 0-.714-.09-.9-.27-.18-.186-.27-.486-.27-.9v-2.709l-.666.027v-.792l.666.027v-1.458h1.053v1.458l.954-.027v.792zm4.56 3.294c-.432.462-.987.693-1.665.693-.684 0-1.236-.228-1.656-.684-.432-.462-.648-1.05-.648-1.764 0-.726.216-1.317.648-1.773.432-.45.99-.675 1.674-.675.678 0 1.23.225 1.656.675.426.456.639 1.041.639 1.755 0 .726-.216 1.317-.648 1.773zm-1.665-.153c.396 0 .708-.147.936-.441.234-.294.35-.687.35-1.179s-.113-.879-.341-1.161c-.228-.282-.543-.423-.945-.423-.396 0-.708.144-.936.432-.222.288-.333.678-.333 1.17 0 .486.114.876.342 1.17.228.288.537.432.927.432zm5.578-4.077c.102 0 .2.009.297.027v.999l-.28-.018c-.371 0-.671.123-.9.369-.221.24-.335.579-.341 1.017V37h-1.053v-4.644H32.9l-.018.846c.246-.66.675-.99 1.287-.99zm3.022 3.672l1.161-3.528h1.107l-2.007 5.508c-.126.366-.288.618-.486.756-.192.144-.462.216-.81.216h-.801v-.891h.531c.198 0 .348-.036.45-.108.102-.072.189-.204.261-.396l.126-.342-1.836-4.743h1.152l1.026 2.898.126.63z"/>
</svg>