<svg xmlns="http://www.w3.org/2000/svg" fill="none" viewBox="0 0 35 40">
  <path fill="#A0A0A0" d="M1.764 37v-6.408H.675V37h1.089zm3.775-4.761c-.639 0-1.116.261-1.44.765l-.018-.648H3.073V37h1.053v-2.529c0-.414.1-.729.306-.954.198-.225.468-.342.801-.342.531 0 .801.297.801.882V37h1.053v-3.168c0-.495-.144-.882-.414-1.17-.27-.279-.648-.423-1.134-.423zm4.977 2.142l-.414 1.683-.432-1.683-.657-2.025H7.897L9.553 37h1.062l1.61-4.644h-1.061l-.648 2.025zm6.631.324c0-.756-.207-1.359-.62-1.809-.415-.432-.964-.657-1.639-.657-.684 0-1.233.225-1.638.675-.405.459-.603 1.044-.603 1.746 0 .738.207 1.332.621 1.782.414.468.981.693 1.701.693.522 0 .963-.126 1.323-.387.36-.252.621-.63.765-1.116l-1.008-.09c-.189.504-.549.756-1.08.756-.378 0-.675-.108-.89-.342-.217-.234-.343-.558-.36-.99h3.428v-.261zm-1.422-1.35c.198.198.315.495.37.882h-2.368c.027-.378.153-.666.37-.882.197-.198.476-.306.818-.306.333 0 .603.108.81.306zm4.879-1.116c-.64 0-1.116.261-1.44.765l-.018-.648h-1.008V37h1.053v-2.529c0-.414.099-.729.306-.954.198-.225.468-.342.8-.342.532 0 .802.297.802.882V37h1.053v-3.168c0-.495-.144-.882-.414-1.17-.27-.279-.648-.423-1.134-.423zm5.093.909v-.792l-.954.027v-1.458H23.69v1.458l-.666-.027v.792l.666-.027v2.709c0 .414.09.72.27.9.18.18.486.27.9.27h.837v-.855h-.513c-.162 0-.279-.027-.342-.099-.072-.063-.099-.18-.099-.351v-2.583l.954.036zm4.56 3.294c.432-.45.648-1.044.648-1.773 0-.711-.216-1.296-.64-1.755-.431-.45-.98-.675-1.655-.675-.684 0-1.242.225-1.674.675-.432.459-.648 1.053-.648 1.773s.216 1.305.648 1.764c.414.459.972.684 1.656.684.675 0 1.233-.225 1.665-.693zm-1.665-.153c-.396 0-.702-.144-.927-.432-.234-.288-.342-.684-.342-1.17 0-.486.108-.882.333-1.17.225-.288.54-.432.936-.432s.71.144.945.423c.225.288.342.675.342 1.161 0 .495-.117.891-.351 1.179-.234.297-.54.441-.936.441zm5.578-4.077c-.612 0-1.044.333-1.287.99l.018-.846h-1.008V37h1.053v-2.394c0-.432.117-.774.342-1.017.225-.243.522-.369.9-.369 0 0 .099.009.279.018v-.999a1.657 1.657 0 00-.297-.027zm3.022 3.672l-.126-.63-1.026-2.898h-1.152l1.836 4.743-.126.342c-.072.198-.162.324-.261.396-.108.072-.252.108-.45.108h-.531v.891h.801c.342 0 .612-.063.81-.207.198-.144.36-.396.486-.765l2.007-5.508h-1.107l-1.161 3.528zM17.87 17.746l-1.403 1.413a.074.074 0 01-.053.022.074.074 0 01-.053-.022l-.521-.52a.375.375 0 10-.53.53l.52.52a.819.819 0 00.584.242h.001c.22 0 .428-.087.584-.244l1.402-1.413a.375.375 0 00-.531-.528zm.53-10.204a.375.375 0 00-.53.001l-1.403 1.413a.074.074 0 01-.053.022.074.074 0 01-.053-.022l-.521-.52a.375.375 0 10-.53.53l.52.52a.819.819 0 00.584.242h.001c.22 0 .428-.087.584-.244l1.403-1.412a.375.375 0 00-.002-.53zm0 5.101a.375.375 0 00-.53.002l-1.403 1.413a.074.074 0 01-.053.022.074.074 0 01-.053-.022l-.521-.521a.375.375 0 10-.53.53l.52.52a.819.819 0 00.584.242h.001a.82.82 0 00.584-.243l1.403-1.413a.375.375 0 00-.002-.53zm-2.35-5.52H14.83a.825.825 0 00-.825.824v2.703c0 .455.37.825.825.825h2.703c.455 0 .825-.37.825-.825v-.948a.375.375 0 10-.75 0v.948a.075.075 0 01-.075.075H14.83a.075.075 0 01-.075-.075V7.947c0-.041.034-.075.075-.075h1.221a.375.375 0 100-.75zM27.544.769h-1.718a.375.375 0 100 .75h1.718a1.12 1.12 0 011.118 1.118v21.078a1.12 1.12 0 01-1.118 1.119H11.868a1.12 1.12 0 01-1.119-1.119V2.637a1.12 1.12 0 011.119-1.118h2.838v.744h-2.59a.624.624 0 00-.623.623V18.32a.375.375 0 10.75 0V3.012h1.78a1.117 1.117 0 00-.063.372v1.04c0 .617.503 1.12 1.12 1.12h9.25c.619 0 1.122-.503 1.122-1.12v-1.04c0-.13-.023-.256-.064-.372h1.78v16.43h-1.944a1.87 1.87 0 00-1.868 1.869v1.945H12.242v-3.438a.375.375 0 10-.749 0v3.564c0 .344.28.623.624.623H23.73c.1 0 .195-.04.265-.11h.001l3.812-3.812a.378.378 0 00.108-.241l.001-16.956a.624.624 0 00-.623-.623h-2.59v-1.04C24.705.549 24.157 0 23.483 0h-7.554c-.514 0-.955.32-1.135.77h-2.926A1.87 1.87 0 0010 2.636v21.078a1.87 1.87 0 001.868 1.868h15.676a1.87 1.87 0 001.867-1.867V2.636A1.87 1.87 0 0027.544.77zm-3.438 21.957V21.31a1.12 1.12 0 011.118-1.119h1.415l-2.533 2.534zm-8.65-21.503c0-.261.212-.473.473-.473h7.554c.26 0 .473.212.473.473v1.375a.474.474 0 01-.473.473h-7.554a.474.474 0 01-.473-.473V1.223zm-.747 2.16a.37.37 0 01.113-.266c.196.416.618.704 1.107.704h7.554c.488 0 .91-.288 1.106-.704a.37.37 0 01.113.267v1.04a.372.372 0 01-.372.371h-9.25a.372.372 0 01-.37-.372v-1.04zm-.704 12.369c0 .454.37.824.824.824h2.703c.455 0 .825-.37.825-.824v-.949a.375.375 0 10-.75 0v.949a.075.075 0 01-.075.075H14.83a.075.075 0 01-.075-.075v-2.704c0-.04.034-.074.075-.074h1.221a.375.375 0 100-.75H14.83a.825.825 0 00-.825.825v2.703zm5.682 2.323h5.345a.375.375 0 100-.75h-5.345a.375.375 0 000 .75zm-5.683 2.778c0 .455.37.825.825.825h2.703c.455 0 .825-.37.825-.825v-.948a.375.375 0 10-.75 0v.948a.075.075 0 01-.075.075H14.83a.075.075 0 01-.075-.075V18.15c0-.041.034-.075.075-.075h1.221a.375.375 0 100-.75H14.83a.825.825 0 00-.825.825v2.703zm5.683-1.279h3.096a.375.375 0 100-.75h-3.096a.375.375 0 000 .75zm0-5.101h3.096a.375.375 0 100-.75h-3.096a.375.375 0 100 .75zm0-1.5h5.345a.375.375 0 100-.749h-5.345a.375.375 0 000 .75zm0-3.602h5.345a.375.375 0 000-.75h-5.345a.375.375 0 000 .75zm0-1.499h5.345a.375.375 0 000-.75h-5.345a.375.375 0 000 .75z"/>
</svg>
